<mxfile host="app.diagrams.net" modified="2021-11-12T02:59:33.006Z" agent="5.0 (X11)" etag="I2pXneNvYjrzAEA1U4z-" version="15.6.8" type="github" pages="2">
  <diagram id="6a731a19-8d31-9384-78a2-239565b7b9f0" name="Page-1">
    <mxGraphModel dx="721" dy="436" grid="1" gridSize="10" guides="1" tooltips="1" connect="1" arrows="1" fold="1" page="1" pageScale="1" pageWidth="1169" pageHeight="827" background="#FFFFFF" math="0" shadow="0">
      <root>
        <mxCell id="0" />
        <mxCell id="1" parent="0" />
        <mxCell id="lxmNtdXKwDySjB6a861K-2092" style="edgeStyle=orthogonalEdgeStyle;rounded=0;orthogonalLoop=1;jettySize=auto;html=1;curved=1;" edge="1" parent="1" source="lxmNtdXKwDySjB6a861K-2086" target="lxmNtdXKwDySjB6a861K-2087">
          <mxGeometry relative="1" as="geometry" />
        </mxCell>
        <mxCell id="lxmNtdXKwDySjB6a861K-2086" value="" style="aspect=fixed;perimeter=ellipsePerimeter;html=1;align=center;shadow=0;dashed=0;spacingTop=3;image;image=img/lib/active_directory/home.svg;" vertex="1" parent="1">
          <mxGeometry x="390" y="440" width="50" height="48.5" as="geometry" />
        </mxCell>
        <mxCell id="lxmNtdXKwDySjB6a861K-2093" style="edgeStyle=orthogonalEdgeStyle;rounded=0;orthogonalLoop=1;jettySize=auto;html=1;entryX=0.5;entryY=0;entryDx=0;entryDy=0;curved=1;startArrow=classic;startFill=1;" edge="1" parent="1" source="lxmNtdXKwDySjB6a861K-2087" target="lxmNtdXKwDySjB6a861K-2088">
          <mxGeometry relative="1" as="geometry" />
        </mxCell>
        <mxCell id="lxmNtdXKwDySjB6a861K-2094" style="edgeStyle=orthogonalEdgeStyle;rounded=0;orthogonalLoop=1;jettySize=auto;html=1;curved=1;startArrow=classic;startFill=1;" edge="1" parent="1" source="lxmNtdXKwDySjB6a861K-2087" target="lxmNtdXKwDySjB6a861K-2089">
          <mxGeometry relative="1" as="geometry" />
        </mxCell>
        <mxCell id="lxmNtdXKwDySjB6a861K-2095" style="edgeStyle=orthogonalEdgeStyle;rounded=0;orthogonalLoop=1;jettySize=auto;html=1;curved=1;" edge="1" parent="1" source="lxmNtdXKwDySjB6a861K-2087" target="lxmNtdXKwDySjB6a861K-2090">
          <mxGeometry relative="1" as="geometry">
            <Array as="points">
              <mxPoint x="535" y="310" />
            </Array>
          </mxGeometry>
        </mxCell>
        <mxCell id="lxmNtdXKwDySjB6a861K-2087" value="" style="aspect=fixed;perimeter=ellipsePerimeter;html=1;align=center;shadow=0;dashed=0;spacingTop=3;image;image=img/lib/active_directory/mainframe.svg;" vertex="1" parent="1">
          <mxGeometry x="510" y="340" width="50" height="47.5" as="geometry" />
        </mxCell>
        <mxCell id="lxmNtdXKwDySjB6a861K-2088" value="" style="aspect=fixed;perimeter=ellipsePerimeter;html=1;align=center;shadow=0;dashed=0;spacingTop=3;image;image=img/lib/active_directory/mainframe_host.svg;" vertex="1" parent="1">
          <mxGeometry x="640" y="430" width="36" height="50" as="geometry" />
        </mxCell>
        <mxCell id="lxmNtdXKwDySjB6a861K-2089" value="" style="aspect=fixed;perimeter=ellipsePerimeter;html=1;align=center;shadow=0;dashed=0;spacingTop=3;image;image=img/lib/active_directory/mainframe_host.svg;" vertex="1" parent="1">
          <mxGeometry x="640" y="230" width="36" height="50" as="geometry" />
        </mxCell>
        <mxCell id="lxmNtdXKwDySjB6a861K-2091" style="edgeStyle=orthogonalEdgeStyle;rounded=0;orthogonalLoop=1;jettySize=auto;html=1;curved=1;" edge="1" parent="1" source="lxmNtdXKwDySjB6a861K-2090" target="lxmNtdXKwDySjB6a861K-2086">
          <mxGeometry relative="1" as="geometry" />
        </mxCell>
        <mxCell id="lxmNtdXKwDySjB6a861K-2090" value="" style="aspect=fixed;perimeter=ellipsePerimeter;html=1;align=center;shadow=0;dashed=0;spacingTop=3;image;image=img/lib/active_directory/users.svg;" vertex="1" parent="1">
          <mxGeometry x="398.5" y="260" width="33" height="50" as="geometry" />
        </mxCell>
      </root>
    </mxGraphModel>
  </diagram>
  <diagram id="DF3qZe2ekWn4BRwI4RlE" name="ticket">
    <mxGraphModel dx="1743" dy="1053" grid="1" gridSize="10" guides="1" tooltips="1" connect="1" arrows="1" fold="1" page="1" pageScale="1" pageWidth="850" pageHeight="1100" math="0" shadow="0">
      <root>
        <mxCell id="dDVVLKmmfPSz56grUMlc-0" />
        <mxCell id="dDVVLKmmfPSz56grUMlc-1" parent="dDVVLKmmfPSz56grUMlc-0" />
        <mxCell id="dDVVLKmmfPSz56grUMlc-5" value="" style="edgeStyle=orthogonalEdgeStyle;curved=1;rounded=0;orthogonalLoop=1;jettySize=auto;html=1;startArrow=classic;startFill=1;" edge="1" parent="dDVVLKmmfPSz56grUMlc-1" source="dDVVLKmmfPSz56grUMlc-2" target="dDVVLKmmfPSz56grUMlc-4">
          <mxGeometry relative="1" as="geometry" />
        </mxCell>
        <mxCell id="dDVVLKmmfPSz56grUMlc-2" value="start" style="rounded=1;whiteSpace=wrap;html=1;" vertex="1" parent="dDVVLKmmfPSz56grUMlc-1">
          <mxGeometry x="70" y="200" width="120" height="60" as="geometry" />
        </mxCell>
        <mxCell id="dDVVLKmmfPSz56grUMlc-7" value="" style="edgeStyle=orthogonalEdgeStyle;curved=1;rounded=0;orthogonalLoop=1;jettySize=auto;html=1;startArrow=classic;startFill=1;" edge="1" parent="dDVVLKmmfPSz56grUMlc-1" source="dDVVLKmmfPSz56grUMlc-4" target="dDVVLKmmfPSz56grUMlc-6">
          <mxGeometry relative="1" as="geometry" />
        </mxCell>
        <mxCell id="dDVVLKmmfPSz56grUMlc-4" value="confirm" style="rounded=1;whiteSpace=wrap;html=1;" vertex="1" parent="dDVVLKmmfPSz56grUMlc-1">
          <mxGeometry x="270" y="200" width="120" height="60" as="geometry" />
        </mxCell>
        <mxCell id="dDVVLKmmfPSz56grUMlc-9" value="" style="edgeStyle=orthogonalEdgeStyle;curved=1;rounded=0;orthogonalLoop=1;jettySize=auto;html=1;startArrow=classic;startFill=1;" edge="1" parent="dDVVLKmmfPSz56grUMlc-1" source="dDVVLKmmfPSz56grUMlc-6" target="dDVVLKmmfPSz56grUMlc-8">
          <mxGeometry relative="1" as="geometry" />
        </mxCell>
        <mxCell id="dDVVLKmmfPSz56grUMlc-6" value="prepare" style="rounded=1;whiteSpace=wrap;html=1;" vertex="1" parent="dDVVLKmmfPSz56grUMlc-1">
          <mxGeometry x="470" y="200" width="120" height="60" as="geometry" />
        </mxCell>
        <mxCell id="dDVVLKmmfPSz56grUMlc-8" value="prepare" style="rounded=1;whiteSpace=wrap;html=1;" vertex="1" parent="dDVVLKmmfPSz56grUMlc-1">
          <mxGeometry x="670" y="200" width="120" height="60" as="geometry" />
        </mxCell>
      </root>
    </mxGraphModel>
  </diagram>
</mxfile>
